<svg height="512" viewBox="0 0 64 64" width="512" xmlns="http://www.w3.org/2000/svg"><g id="shopping_online" data-name="shopping online"><path d="m54 25a22 22 0 0 1 -44 0 21.759 21.759 0 0 1 1.7-8.48c.23-.57.49-1.12.77-1.66a22.229 22.229 0 0 1 1.32-2.21v-.01a22.646 22.646 0 0 1 2.53-3.08 22.006 22.006 0 0 1 37.68 15.44z" fill="#57a4ff"/><path d="m54 25a22.011 22.011 0 0 1 -.83 6 19.552 19.552 0 0 1 -.67 2 22.012 22.012 0 0 1 -20.5 14c-.34 0-.67-.01-1-.02s-.67-.04-1-.07c.34-.03.67-.07 1-.12a21.985 21.985 0 0 0 17.49-13.79 17.384 17.384 0 0 0 .67-2 21.635 21.635 0 0 0 .84-6 22 22 0 0 0 -20-21.91c.66-.06 1.32-.09 2-.09a22 22 0 0 1 22 22z" fill="#2488ff"/><path d="m13.79 12.65.21 2.35-1.53-.14-6.25-.57 2.12-2.12-5.65-5.66 2.82-2.82 5.66 5.65 2.12-2.12z" fill="#ffde55"/><path d="m13.62 10.79-1.95-1.95" fill="none"/><path d="m17 17-1.53-.14-3.77-.34c.23-.57.49-1.12.77-1.66l1.53.14-.21-2.35v-.01a22.646 22.646 0 0 1 2.53-3.08l.47 5.09z" fill="#2488ff"/><path d="m61 49v2a2.006 2.006 0 0 1 -2 2h-26a2.006 2.006 0 0 1 -2-2v-2z" fill="#e0e0e2"/><path d="m61 35v14h-30v-14a2 2 0 0 1 2-2h26a2.006 2.006 0 0 1 2 2z" fill="#00d7df"/><path d="m53.17 31a19.552 19.552 0 0 1 -.67 2h-19.5a2 2 0 0 0 -2 2v12h-2v-14a2 2 0 0 1 2-2z" fill="#2488ff"/><path d="m61 35v14h-30v-3h19a8 8 0 0 0 8-8v-5h1a2.006 2.006 0 0 1 2 2z" fill="#009698"/><path d="m52.4 57 1.47 4h-15.74l1.47-4h3.4 6z" fill="#e0e0e2"/><path d="m48 53 1 4h-6l1-4z" fill="#898890"/><path d="m59 32h-5.11a22.988 22.988 0 0 0 -39.34-21.98l-.26-2.89a1 1 0 0 0 -1.7-.62l-1.42 1.42-4.95-4.95a1 1 0 0 0 -1.41 0l-2.83 2.83a1 1 0 0 0 0 1.41l4.95 4.95-1.42 1.42a1 1 0 0 0 -.23 1.04 1.01 1.01 0 0 0 .85.66l4.82.44a22.973 22.973 0 0 0 19.05 32.15v3.12a3.009 3.009 0 0 0 3 3h9.72l-.5 2h-2.62a.992.992 0 0 0 -.94.66l-1.47 4a1 1 0 0 0 .94 1.34h15.74a1 1 0 0 0 .94-1.34l-1.47-4a.992.992 0 0 0 -.94-.66h-2.62l-.5-2h9.72a3.009 3.009 0 0 0 3-3v-16a3.009 3.009 0 0 0 -3-3zm-6.05-8h-8.23a37.614 37.614 0 0 0 -1.82-11.04 22.483 22.483 0 0 0 3.99-2.75 20.981 20.981 0 0 1 6.06 13.79zm0 2a20.409 20.409 0 0 1 -1.17 6h-7.65a40.268 40.268 0 0 0 .58-6zm-7.55-17.15a20.844 20.844 0 0 1 -3.21 2.22 19.084 19.084 0 0 0 -3.83-6.08 20.838 20.838 0 0 1 7.04 3.86zm-12.4-4.75c2.93.56 5.56 3.55 7.34 7.89a20.829 20.829 0 0 1 -7.34 1.7zm0 11.59a22.826 22.826 0 0 0 8.03-1.82 35.549 35.549 0 0 1 1.67 10.13h-9.7zm0 10.31h9.71a37.511 37.511 0 0 1 -.62 6h-9.09zm-7.36-21.01a18.973 18.973 0 0 0 -3.83 6.08 21.428 21.428 0 0 1 -3.22-2.22 20.951 20.951 0 0 1 7.05-3.86zm-17.2 8.5.61-.61a1.008 1.008 0 0 0 0-1.42l-4.95-4.95 1.41-1.41 4.95 4.95a1.027 1.027 0 0 0 1.42 0l.61-.61.41 4.46zm4.63 2.43.84.08h.09a1.007 1.007 0 0 0 .71-.29 1.024 1.024 0 0 0 .29-.8l-.18-1.97a21.518 21.518 0 0 1 2.28-2.74 22.613 22.613 0 0 0 4 2.76 37.614 37.614 0 0 0 -1.82 11.04h-8.25a20.868 20.868 0 0 1 2.04-8.08zm-2.02 10.08h8.25a37.373 37.373 0 0 0 1.82 11.02 22.509 22.509 0 0 0 -4.02 2.78 20.927 20.927 0 0 1 -6.05-13.8zm7.53 15.15a20.359 20.359 0 0 1 3.25-2.23 19.183 19.183 0 0 0 3.86 6.09 20.724 20.724 0 0 1 -7.11-3.86zm11.42 4.46c-2.57-.97-4.81-3.74-6.38-7.59a21.183 21.183 0 0 1 6.38-1.63zm1-12.83a2.994 2.994 0 0 0 -.93 1.6 22.607 22.607 0 0 0 -7.14 1.76 36.666 36.666 0 0 1 -1.64-10.14h9.71zm0-8.78h-9.7a35.549 35.549 0 0 1 1.67-10.13 22.826 22.826 0 0 0 8.03 1.82zm0-10.31a20.829 20.829 0 0 1 -7.34-1.7c1.78-4.34 4.41-7.33 7.34-7.89zm20.7 44.31.74 2h-12.88l.74-2zm-7.42-2 .5-2h2.44l.5 2zm15.72-5a1 1 0 0 1 -1 1h-26a1 1 0 0 1 -1-1v-1h28zm0-3h-28v-13a1 1 0 0 1 1-1h26a1 1 0 0 1 1 1z"/></g></svg>