<svg enable-background="new 0 0 256 256" height="512" viewBox="0 0 256 256" width="512" xmlns="http://www.w3.org/2000/svg"><g id="Layer_44"><g><g><g><g><path d="m151.353 159.5h-46.705c-11.109 0-20.147-9.038-20.147-20.147v-46.706c0-11.109 9.038-20.147 20.147-20.147h46.705c11.109 0 20.147 9.038 20.147 20.147v46.705c0 11.11-9.038 20.148-20.147 20.148z" fill="#fcdd86"/></g></g></g><g><g><path d="m104.647 82.5c-5.596 0-10.147 4.552-10.147 10.147v46.705c0 5.595 4.552 10.147 10.147 10.147h46.705c5.596 0 10.147-4.552 10.147-10.147v-46.705c0-5.595-4.552-10.147-10.147-10.147z" fill="#f5c84c"/></g></g><g><g><g><path d="m241.363 102.924c-2.023-.932-3.403-2.837-3.643-5.052-2.39-22.063-22.598-37.713-44.269-34.987-3.317.417-6.313-1.872-6.864-5.169-3.881-23.213-24.052-40.907-48.367-40.907-18.389 0-34.404 10.124-42.801 25.097-1.619 2.887-5.251 3.872-8.225 2.419-17.92-8.754-40.243 2.579-43.1 22.774-.437 3.091-3.119 5.368-6.24 5.307-19.791-.389-36.506 16.184-35.292 36.862 1.11 18.896 17.183 33.449 36.111 33.449h46.131c-.186-1.097-.304-2.216-.304-3.365v-46.705c0-11.109 9.038-20.147 20.147-20.147h46.705c11.109 0 20.147 9.038 20.147 20.147v46.705c0 1.149-.119 2.268-.304 3.365h61.003c11.339 0 20.947-8.865 21.292-20.198.264-8.68-4.779-16.211-12.127-19.595z" fill="#70d6f9"/></g></g></g><g><g><g><path d="m151.353 162h-46.705c-12.489 0-22.648-10.16-22.648-22.647v-46.706c0-12.487 10.159-22.647 22.647-22.647h46.705c12.489 0 22.648 10.16 22.648 22.647v46.705c0 12.488-10.159 22.648-22.647 22.648zm-46.706-87c-9.73 0-17.647 7.917-17.647 17.647v46.705c0 9.731 7.917 17.648 17.647 17.648h46.705c9.73 0 17.647-7.917 17.647-17.647v-46.706c.001-9.73-7.916-17.647-17.646-17.647z"/></g></g></g><g><g><g><path d="m232.198 145.217h-60.198c-1.381 0-2.5-1.119-2.5-2.5s1.119-2.5 2.5-2.5h60.198c10.064 0 18.495-7.974 18.793-17.774.225-7.388-3.965-14.159-10.674-17.248-2.846-1.311-4.746-3.947-5.083-7.054-1.074-9.913-5.999-18.798-13.87-25.02-7.902-6.247-17.705-9.002-27.601-7.756-4.632.586-8.866-2.598-9.642-7.238-3.761-22.493-23.065-38.819-45.902-38.819-16.816 0-32.382 9.127-40.62 23.82-2.237 3.988-7.288 5.502-11.504 3.442-7.825-3.823-17.222-3.598-25.133.601-7.919 4.203-13.166 11.594-14.394 20.277-.615 4.337-4.409 7.516-8.765 7.456-8.911-.17-17.59 3.44-23.817 9.917-6.294 6.545-9.465 15.175-8.929 24.3 1.023 17.437 15.789 31.096 33.615 31.096h45.493c1.381 0 2.5 1.119 2.5 2.5s-1.119 2.5-2.5 2.5h-45.491c-20.47 0-37.429-15.727-38.607-35.803-.618-10.533 3.045-20.498 10.316-28.059 7.192-7.478 17.24-11.662 27.52-11.45 1.854.051 3.457-1.321 3.716-3.158 1.455-10.286 7.651-19.031 17.001-23.993 9.319-4.947 20.412-5.2 29.672-.676 1.832.894 4.006.282 4.947-1.395 9.122-16.269 26.358-26.375 44.981-26.375 25.29 0 46.669 18.082 50.834 42.995.332 1.986 2.123 3.348 4.086 3.101 11.233-1.414 22.362 1.71 31.325 8.794 8.932 7.06 14.521 17.147 15.74 28.404.146 1.342.97 2.482 2.204 3.05 8.535 3.931 13.865 12.543 13.58 21.942-.38 12.475-11.051 22.623-23.791 22.623z"/></g></g></g><g><g><path d="m151.353 152h-46.705c-6.974 0-12.648-5.674-12.648-12.647v-46.706c0-6.973 5.674-12.647 12.647-12.647h46.705c6.974 0 12.648 5.674 12.648 12.647v46.705c0 6.974-5.674 12.648-12.647 12.648zm-46.706-67c-4.216 0-7.647 3.431-7.647 7.647v46.705c0 4.217 3.431 7.647 7.647 7.647h46.705c4.217 0 7.647-3.431 7.647-7.647v-46.705c0-4.217-3.431-7.647-7.647-7.647z"/></g></g><g><g><g><path d="m122.857 98.238h-16c-1.381 0-2.5-1.119-2.5-2.5s1.119-2.5 2.5-2.5h16c1.381 0 2.5 1.119 2.5 2.5s-1.119 2.5-2.5 2.5z"/></g></g><g><g><path d="m122.857 108.369h-16c-1.381 0-2.5-1.119-2.5-2.5s1.119-2.5 2.5-2.5h16c1.381 0 2.5 1.119 2.5 2.5s-1.119 2.5-2.5 2.5z"/></g></g><g><g><path d="m122.857 118.5h-16c-1.381 0-2.5-1.119-2.5-2.5s1.119-2.5 2.5-2.5h16c1.381 0 2.5 1.119 2.5 2.5s-1.119 2.5-2.5 2.5z"/></g></g><g><g><path d="m122.857 128.631h-16c-1.381 0-2.5-1.119-2.5-2.5s1.119-2.5 2.5-2.5h16c1.381 0 2.5 1.119 2.5 2.5s-1.119 2.5-2.5 2.5z"/></g></g><g><g><path d="m122.857 138.762h-16c-1.381 0-2.5-1.119-2.5-2.5s1.119-2.5 2.5-2.5h16c1.381 0 2.5 1.119 2.5 2.5s-1.119 2.5-2.5 2.5z"/></g></g><g><g><path d="m149.143 98.238h-16c-1.381 0-2.5-1.119-2.5-2.5s1.119-2.5 2.5-2.5h16c1.381 0 2.5 1.119 2.5 2.5s-1.12 2.5-2.5 2.5z"/></g></g><g><g><path d="m149.143 108.369h-16c-1.381 0-2.5-1.119-2.5-2.5s1.119-2.5 2.5-2.5h16c1.381 0 2.5 1.119 2.5 2.5s-1.12 2.5-2.5 2.5z"/></g></g><g><g><path d="m149.143 118.5h-16c-1.381 0-2.5-1.119-2.5-2.5s1.119-2.5 2.5-2.5h16c1.381 0 2.5 1.119 2.5 2.5s-1.12 2.5-2.5 2.5z"/></g></g><g><g><path d="m149.143 128.631h-16c-1.381 0-2.5-1.119-2.5-2.5s1.119-2.5 2.5-2.5h16c1.381 0 2.5 1.119 2.5 2.5s-1.12 2.5-2.5 2.5z"/></g></g><g><g><path d="m149.143 138.762h-16c-1.381 0-2.5-1.119-2.5-2.5s1.119-2.5 2.5-2.5h16c1.381 0 2.5 1.119 2.5 2.5s-1.12 2.5-2.5 2.5z"/></g></g></g><g><g><path d="m33 231c-1.381 0-2.5-1.119-2.5-2.5v-39c0-1.381 1.119-2.5 2.5-2.5h55.5v-17.5c0-1.381 1.119-2.5 2.5-2.5s2.5 1.119 2.5 2.5v20c0 1.381-1.119 2.5-2.5 2.5h-55.5v36.5c0 1.381-1.119 2.5-2.5 2.5z"/></g></g><g><g><path d="m67.344 231c-1.381 0-2.5-1.119-2.5-2.5v-23c0-1.381 1.119-2.5 2.5-2.5h39.656v-33.5c0-1.381 1.119-2.5 2.5-2.5s2.5 1.119 2.5 2.5v36c0 1.381-1.119 2.5-2.5 2.5h-39.656v20.5c0 1.381-1.119 2.5-2.5 2.5z"/></g></g><g><g><path d="m128 231c-1.381 0-2.5-1.119-2.5-2.5v-59c0-1.381 1.119-2.5 2.5-2.5s2.5 1.119 2.5 2.5v59c0 1.381-1.119 2.5-2.5 2.5z"/></g></g><g><g><path d="m223 231c-1.381 0-2.5-1.119-2.5-2.5v-36.5h-55.5c-1.381 0-2.5-1.119-2.5-2.5v-20c0-1.381 1.119-2.5 2.5-2.5s2.5 1.119 2.5 2.5v17.5h55.5c1.381 0 2.5 1.119 2.5 2.5v39c0 1.381-1.119 2.5-2.5 2.5z"/></g></g><g><g><path d="m188.656 231c-1.381 0-2.5-1.119-2.5-2.5v-20.5h-39.656c-1.381 0-2.5-1.119-2.5-2.5v-36c0-1.381 1.119-2.5 2.5-2.5s2.5 1.119 2.5 2.5v33.5h39.656c1.381 0 2.5 1.119 2.5 2.5v23c0 1.381-1.119 2.5-2.5 2.5z"/></g></g><g><g><path d="m33 244c-1.381 0-2.5-1.119-2.5-2.5v-4c0-1.381 1.119-2.5 2.5-2.5s2.5 1.119 2.5 2.5v4c0 1.381-1.119 2.5-2.5 2.5z"/></g></g><g><g><path d="m67.344 244c-1.381 0-2.5-1.119-2.5-2.5v-4c0-1.381 1.119-2.5 2.5-2.5s2.5 1.119 2.5 2.5v4c0 1.381-1.119 2.5-2.5 2.5z"/></g></g><g><g><path d="m128 244c-1.381 0-2.5-1.119-2.5-2.5v-4c0-1.381 1.119-2.5 2.5-2.5s2.5 1.119 2.5 2.5v4c0 1.381-1.119 2.5-2.5 2.5z"/></g></g><g><g><path d="m188.656 244c-1.381 0-2.5-1.119-2.5-2.5v-4c0-1.381 1.119-2.5 2.5-2.5s2.5 1.119 2.5 2.5v4c0 1.381-1.119 2.5-2.5 2.5z"/></g></g><g><g><path d="m223 244c-1.381 0-2.5-1.119-2.5-2.5v-4c0-1.381 1.119-2.5 2.5-2.5s2.5 1.119 2.5 2.5v4c0 1.381-1.119 2.5-2.5 2.5z"/></g></g><g><g><path d="m182.918 8.551c-4.149.773-7.419 3.976-8.208 8.041-.04.204-.325.204-.364 0-.789-4.065-4.059-7.268-8.208-8.041-.208-.039-.208-.318 0-.357 4.149-.773 7.419-3.976 8.208-8.041.04-.204.325-.204.364 0 .789 4.065 4.059 7.268 8.208 8.041.208.039.208.318 0 .357z" fill="#f5c84c"/></g></g><g><g><path d="m100.039 234.617c-2.726.508-4.874 2.612-5.392 5.282-.026.134-.213.134-.239 0-.518-2.67-2.666-4.775-5.392-5.282-.137-.025-.137-.209 0-.234 2.726-.508 4.874-2.612 5.392-5.282.026-.134.213-.134.239 0 .518 2.67 2.666 4.775 5.392 5.282.137.025.137.209 0 .234z" fill="#70d6f9"/></g></g><g><g><circle cx="28.981" cy="56.377" fill="#70d6f9" r="3.377"/></g></g><g><g><circle cx="106.981" cy="252.623" fill="#f5c84c" r="3.377"/></g></g><g><g><circle cx="190.981" cy="24.377" fill="#fc657e" r="3.377"/></g></g><g><g><path d="m190.454 163.758h-1.824v-1.824c0-1.366-1.107-2.473-2.473-2.473s-2.473 1.107-2.473 2.473v1.824h-1.824c-1.366 0-2.473 1.107-2.473 2.473s1.107 2.473 2.473 2.473h1.824v1.824c0 1.366 1.107 2.473 2.473 2.473s2.473-1.107 2.473-2.473v-1.824h1.824c1.366 0 2.473-1.107 2.473-2.473s-1.108-2.473-2.473-2.473z" fill="#87d147"/></g></g></g></g></svg>